<svg width="31" height="30" viewBox="0 0 31 30" fill="none" xmlns="http://www.w3.org/2000/svg">
<g clip-path="url(#clip0_75_173)">
<path d="M15.4998 2.689C19.4896 2.689 19.962 2.7065 21.5311 2.7765C22.9894 2.84066 23.7768 3.08565 24.3018 3.2898C24.9959 3.55812 25.4975 3.88477 26.0167 4.4039C26.5417 4.92887 26.8625 5.42467 27.1308 6.1188C27.3349 6.64377 27.5799 7.43705 27.6441 8.88946C27.7141 10.4644 27.7316 10.9368 27.7316 14.9208C27.7316 18.9105 27.7141 19.383 27.6441 20.9521C27.5799 22.4103 27.3349 23.1978 27.1308 23.7227C26.8625 24.4169 26.5358 24.9185 26.0167 25.4376C25.4917 25.9626 24.9959 26.2834 24.3018 26.5517C23.7768 26.7559 22.9835 27.0009 21.5311 27.065C19.9562 27.135 19.4837 27.1525 15.4998 27.1525C11.5101 27.1525 11.0376 27.135 9.46851 27.065C8.01027 27.0009 7.22282 26.7559 6.69785 26.5517C6.00372 26.2834 5.50209 25.9568 4.98295 25.4376C4.45798 24.9127 4.13717 24.4169 3.86885 23.7227C3.6647 23.1978 3.41971 22.4045 3.35555 20.9521C3.28555 19.3772 3.26805 18.9047 3.26805 14.9208C3.26805 10.931 3.28555 10.4585 3.35555 8.88946C3.41971 7.43122 3.6647 6.64377 3.86885 6.1188C4.13717 5.42467 4.46381 4.92304 4.98295 4.4039C5.50792 3.87893 6.00372 3.55812 6.69785 3.2898C7.22282 3.08565 8.0161 2.84066 9.46851 2.7765C11.0376 2.7065 11.5101 2.689 15.4998 2.689ZM15.4998 0C11.4459 0 10.9384 0.0174989 9.34602 0.0874947C7.75945 0.157491 6.66868 0.414142 5.72374 0.781619C4.73796 1.1666 3.90385 1.67407 3.07557 2.50818C2.24145 3.33647 1.73398 4.17058 1.349 5.15052C0.981524 6.1013 0.724873 7.18623 0.654878 8.7728C0.584882 10.371 0.567383 10.8785 0.567383 14.9324C0.567383 18.9864 0.584882 19.4938 0.654878 21.0862C0.724873 22.6728 0.981524 23.7636 1.349 24.7085C1.73398 25.6943 2.24145 26.5284 3.07557 27.3567C3.90385 28.185 4.73797 28.6983 5.71791 29.0774C6.66868 29.4449 7.75362 29.7015 9.34019 29.7715C10.9326 29.8415 11.4401 29.859 15.494 29.859C19.5479 29.859 20.0554 29.8415 21.6478 29.7715C23.2344 29.7015 24.3251 29.4449 25.2701 29.0774C26.25 28.6983 27.0841 28.185 27.9124 27.3567C28.7407 26.5284 29.254 25.6943 29.6331 24.7143C30.0006 23.7636 30.2573 22.6786 30.3273 21.0921C30.3973 19.4997 30.4148 18.9922 30.4148 14.9383C30.4148 10.8843 30.3973 10.3769 30.3273 8.78447C30.2573 7.1979 30.0006 6.10713 29.6331 5.16219C29.2657 4.17058 28.7582 3.33647 27.9241 2.50818C27.0958 1.6799 26.2617 1.1666 25.2817 0.787453C24.331 0.419975 23.246 0.163323 21.6594 0.0933277C20.0612 0.017499 19.5537 0 15.4998 0Z" fill="white"/>
<path d="M15.4995 7.26172C11.2647 7.26172 7.8291 10.6973 7.8291 14.9321C7.8291 19.1668 11.2647 22.6025 15.4995 22.6025C19.7342 22.6025 23.1698 19.1668 23.1698 14.9321C23.1698 10.6973 19.7342 7.26172 15.4995 7.26172ZM15.4995 19.9076C12.7521 19.9076 10.5239 17.6794 10.5239 14.9321C10.5239 12.1848 12.7521 9.95656 15.4995 9.95656C18.2468 9.95656 20.475 12.1848 20.475 14.9321C20.475 17.6794 18.2468 19.9076 15.4995 19.9076Z" fill="white"/>
<path d="M25.2641 6.9587C25.2641 7.9503 24.4591 8.74942 23.4733 8.74942C22.4817 8.74942 21.6826 7.94447 21.6826 6.9587C21.6826 5.96709 22.4876 5.16797 23.4733 5.16797C24.4591 5.16797 25.2641 5.97292 25.2641 6.9587Z" fill="white"/>
</g>
<defs>
<clipPath id="clip0_75_173">
<rect width="29.8649" height="29.8649" fill="white" transform="translate(0.567383)"/>
</clipPath>
</defs>
</svg>
