<svg width="31" height="30" viewBox="0 0 31 30" fill="none" xmlns="http://www.w3.org/2000/svg">
<g clip-path="url(#clip0_75_172)">
<path d="M28.0057 0H2.55643C1.33734 0 0.351562 0.962442 0.351562 2.15237V27.7067C0.351562 28.8966 1.33734 29.8649 2.55643 29.8649H28.0057C29.2248 29.8649 30.2164 28.8966 30.2164 27.7125V2.15237C30.2164 0.962442 29.2248 0 28.0057 0ZM9.21186 25.4493H4.7788V11.1935H9.21186V25.4493ZM6.99533 9.25111C5.57208 9.25111 4.42298 8.10201 4.42298 6.6846C4.42298 5.26718 5.57208 4.11808 6.99533 4.11808C8.41274 4.11808 9.56184 5.26718 9.56184 6.6846C9.56184 8.09618 8.41274 9.25111 6.99533 9.25111ZM25.8009 25.4493H21.3736V18.5197C21.3736 16.869 21.3445 14.7399 19.0696 14.7399C16.7656 14.7399 16.4156 16.5423 16.4156 18.4031V25.4493H11.9942V11.1935H16.2406V13.1417H16.2989C16.8881 12.0218 18.3346 10.8377 20.487 10.8377C24.9726 10.8377 25.8009 13.7892 25.8009 17.6273V25.4493Z" fill="white"/>
</g>
<defs>
<clipPath id="clip0_75_172">
<rect width="29.8649" height="29.8649" fill="white" transform="translate(0.351562)"/>
</clipPath>
</defs>
</svg>
